<?xml version="1.0" encoding="UTF-8" standalone="no"?>
<svg
   xmlns:dc="http://purl.org/dc/elements/1.1/"
   xmlns:cc="http://creativecommons.org/ns#"
   xmlns:rdf="http://www.w3.org/1999/02/22-rdf-syntax-ns#"
   xmlns:svg="http://www.w3.org/2000/svg"
   xmlns="http://www.w3.org/2000/svg"
   viewBox="0 0 712 168"
   height="168"
   width="712"
   xml:space="preserve"
   id="svg2"
   version="1.1"><metadata
     id="metadata8"><rdf:RDF><cc:Work
         rdf:about=""><dc:format>image/svg+xml</dc:format><dc:type
           rdf:resource="http://purl.org/dc/dcmitype/StillImage" /></cc:Work></rdf:RDF></metadata><defs
     id="defs6" /><g
     transform="matrix(1.3333333,0,0,-1.3333333,0,168)"
     id="g10"><g
       transform="scale(0.1)"
       id="g12"><path
         id="path14"
         style="fill:#ffffff;fill-opacity:1;fill-rule:nonzero;stroke:none"
         d="m 180.746,1010.91 h -35.121 c -11.629,34.88 -20.145,57.95 -25.488,69.2 -6.782,14.23 -14.551,23.37 -23.1292,27.54 -6.8398,3.23 -19.0234,4.91 -36.6172,4.91 -10.3203,0 -19.5195,-0.13 -27.4804,-0.37 0,-39.23 0.6875,-72.99 2.1757,-101.28 H 1.20312 c 1.80469,37.62 2.73829,79.14 2.73829,124.59 0,42.71 -0.9336,80.26 -2.73829,112.52 H 26.8789 c 5.4727,0 12.375,0.19 20.7656,0.57 8.3946,0.37 17.9688,0.55 28.7852,0.55 53.1523,0 79.7613,-18.34 79.7613,-55.02 0,-30.46 -14.921,-51.91 -44.824,-64.28 v -1.8 c 13.367,-4.04 24.184,-13.31 32.453,-27.85 6.899,-12.19 19.207,-41.9 36.926,-89.28 z m -55.703,170.84 c 0,28.91 -19.52,43.34 -58.6211,43.34 -13.9883,0 -25.6758,-0.75 -35.1914,-2.37 0.8711,-21.14 1.3086,-49.86 1.3086,-86.17 7.2734,-0.18 14.2343,-0.3 20.9492,-0.3 47.6837,0 71.5547,15.16 71.5547,45.5 z M 420.66,1010.91 h -38.422 c 0,8.15 -7.648,33.7 -22.941,76.66 H 254.172 c -15.047,-42.34 -22.57,-67.89 -22.57,-76.66 h -36.801 c 0,4.48 15.664,43.34 46.996,116.51 31.336,73.11 47,113.33 47,120.6 h 42.273 c 0,-7.14 14.922,-46.75 44.766,-118.92 29.902,-72.12 44.824,-111.53 44.824,-118.19 z m -69.758,100.53 c -28.531,71.31 -42.769,109.17 -42.769,113.65 h -2.055 c 0,-3.73 -14.73,-41.66 -44.262,-113.65 z m 292.442,136.58 c -0.434,-22.93 -0.809,-44.32 -1.055,-64.28 -0.25,-19.89 -0.375,-38.48 -0.375,-55.7 0,-81.38 -32.141,-122.04 -96.359,-122.04 -16.727,0 -31.086,2.37 -43.086,7.21 -11.938,4.79 -21.758,12.13 -29.465,22.01 -7.711,9.89 -13.371,22.38 -16.977,37.43 -3.543,15.04 -5.343,32.82 -5.343,53.4 0,17.97 -0.125,37.05 -0.372,57.26 -0.25,20.2 -0.624,41.78 -1.121,64.71 h 34.629 c -1.433,-46.25 -2.175,-82.49 -2.175,-108.73 0,-21.08 0.992,-38.29 3.109,-51.6 2.047,-13.3 5.715,-24.37 11.004,-33.26 5.281,-8.82 11.933,-15.11 19.953,-18.84 8.019,-3.73 18.219,-5.53 30.586,-5.53 12.996,0 23.562,1.8 31.707,5.53 8.082,3.73 14.734,9.83 19.832,18.41 5.098,8.57 8.766,19.52 10.941,32.95 2.176,13.43 3.235,31.02 3.235,52.71 0,12.87 -0.188,28.29 -0.621,46.2 -0.438,17.9 -1.059,38.66 -1.93,62.16 z M 961.77,1010.91 h -34.254 c 0,27.11 -1.864,66.21 -5.657,117.5 -3.73,51.23 -5.785,81.94 -6.031,92.14 h -1.801 c -12.125,-39.48 -27.543,-82.32 -46.132,-128.51 -18.649,-46.18 -27.977,-73.23 -27.977,-81.13 h -24.617 c 0,8.52 -8.641,36.06 -26.047,82.63 -17.348,46.56 -28.352,77.71 -32.949,93.5 -4.602,15.79 -7.77,26.98 -9.45,33.51 h -1.867 c -0.308,-16.66 -2.734,-50.24 -7.148,-100.72 -4.477,-50.54 -6.652,-86.85 -6.652,-108.92 h -31.333 c 0,1.25 4.102,34.63 12.372,100.28 8.265,65.59 12.371,111.22 12.371,136.83 h 47.929 c 0,-13.3 9.703,-46.68 29.161,-100.15 19.394,-53.4 29.093,-85.79 29.093,-97.05 h 1.864 c 0,11.26 10.878,43.71 32.765,97.36 21.883,53.59 32.762,86.85 32.762,99.84 h 46.812 c 0,-25.61 2.801,-70.99 8.391,-136.21 5.598,-65.21 8.395,-98.85 8.395,-100.9 z m 117.44,105.82 -2.18,-23.5 -77.96,-2.55 1.68,23.31 z m 312.02,131.29 c -0.43,-22.93 -0.81,-44.32 -1.05,-64.28 -0.25,-19.89 -0.38,-38.48 -0.38,-55.7 0,-81.38 -32.14,-122.04 -96.36,-122.04 -16.73,0 -31.08,2.37 -43.08,7.21 -11.94,4.79 -21.76,12.13 -29.47,22.01 -7.71,9.89 -13.37,22.38 -16.97,37.43 -3.55,15.04 -5.35,32.82 -5.35,53.4 0,17.97 -0.12,37.05 -0.37,57.26 -0.25,20.2 -0.63,41.78 -1.12,64.71 h 34.63 c -1.43,-46.25 -2.18,-82.49 -2.18,-108.73 0,-21.08 0.99,-38.29 3.11,-51.6 2.05,-13.3 5.72,-24.37 11,-33.26 5.29,-8.82 11.94,-15.11 19.96,-18.84 8.02,-3.73 18.22,-5.53 30.59,-5.53 12.99,0 23.56,1.8 31.7,5.53 8.08,3.73 14.73,9.83 19.83,18.41 5.1,8.57 8.77,19.52 10.94,32.95 2.18,13.43 3.24,31.02 3.24,52.71 0,12.87 -0.19,28.29 -0.62,46.2 -0.44,17.9 -1.06,38.66 -1.93,62.16 z m 247.37,-237.11 h -25.49 c 0,2.05 -19.9,31.15 -59.74,87.23 -41.66,58.93 -65.41,96.05 -71.19,111.47 h -1.86 c 2.17,-29.22 3.29,-54.34 3.29,-75.23 0,-40.78 0.94,-81.94 2.74,-123.47 h -30.59 c 2.05,39.48 3.11,81.01 3.11,124.59 0,42.83 -1.06,80.38 -3.11,112.52 h 34.94 c 0,-3.35 18.34,-31.08 55.02,-82.99 38.36,-54.65 60.24,-90.27 65.58,-106.74 h 1.81 c -2.05,29.59 -3.11,54.77 -3.11,75.41 0,44.88 -0.8,83.05 -2.55,114.32 h 31.15 c -2.05,-32.14 -3.11,-69.69 -3.11,-112.52 0,-43.58 1.06,-85.11 3.11,-124.59 z m 255.88,127.14 c 0,-34.51 -11,-64.72 -33,-90.71 -22.08,-25.98 -52.48,-38.97 -91.21,-38.97 -12.62,0 -33.69,0.86 -63.16,2.54 1.8,37.62 2.73,79.14 2.73,124.59 0,42.71 -0.93,80.26 -2.73,112.52 h 20.01 c 4.86,0 12.26,0.19 22.2,0.57 10.01,0.37 16.54,0.55 19.71,0.55 42.83,0 74.48,-10.5 94.87,-31.58 20.39,-21.07 30.58,-47.56 30.58,-79.51 z m -31.64,-8.21 c 0,26.98 -8.64,49.49 -25.8,67.58 -17.16,18.09 -43.7,27.17 -79.7,27.17 -5.09,0 -12.06,-0.63 -20.95,-1.87 1,-28.29 1.49,-57.38 1.49,-87.22 0,-32.76 0.69,-66.09 1.99,-99.84 9.7,-1.93 19.09,-2.86 28.04,-2.86 32.08,0 55.89,9.45 71.49,28.47 15.61,19.02 23.44,41.84 23.44,68.57 z m 371.34,3.3 c 0,-39.23 -11.51,-70.57 -34.45,-94.07 -22.94,-23.49 -49.48,-35.24 -79.57,-35.24 -28.91,0 -54.21,10.75 -76.04,32.32 -21.82,21.51 -32.69,50.67 -32.69,87.35 0,39.66 11.5,71.18 34.44,94.43 22.93,23.26 49.48,34.88 79.57,34.88 28.91,0 54.27,-10.82 76.03,-32.33 21.82,-21.57 32.71,-50.66 32.71,-87.34 z m -32.39,-4.23 c 0,31.33 -8.27,55.58 -24.68,72.8 -16.48,17.16 -35.44,25.74 -56.95,25.74 -19.89,0 -37.61,-9.02 -53.16,-27.11 -15.54,-18.09 -23.31,-42.27 -23.31,-72.49 0,-31.46 8.27,-55.76 24.87,-72.92 16.53,-17.22 35.49,-25.8 56.88,-25.8 19.9,0 37.61,9.14 53.1,27.48 15.47,18.34 23.25,42.46 23.25,72.3 z m 250.97,-45.69 c 0,-23.57 -10.07,-41.78 -30.09,-54.65 -19.52,-12.5 -46.38,-18.78 -80.51,-18.78 -9.45,0 -28.04,0.38 -55.7,1.12 1.68,37.62 2.55,79.14 2.55,124.59 0,42.71 -0.87,80.26 -2.55,112.52 h 21.82 c 4.29,0 12.81,0.19 25.68,0.57 12.86,0.37 22.25,0.55 28.09,0.55 50.49,0 75.73,-17.41 75.73,-52.28 0,-27.17 -11.94,-45.26 -35.87,-54.27 v -1.81 c 33.88,-6.09 50.85,-25.24 50.85,-57.56 z m -30.83,-3.11 c 0,29.9 -26.43,44.82 -79.39,44.82 -9.7,0 -18.28,-0.37 -25.68,-1.12 0,-32.39 0.68,-61.36 1.99,-86.85 4.6,-1.12 12.74,-1.62 24.43,-1.62 29.28,0 50.05,3.8 62.29,11.45 10.95,6.9 16.36,18.03 16.36,33.32 z m -14.74,107.68 c 0,25.11 -16.91,37.67 -50.79,37.67 -17.04,0 -30.78,-0.87 -41.34,-2.74 0.93,-8.7 1.43,-33.44 1.43,-74.1 5.97,-0.25 12.49,-0.38 19.71,-0.38 23.99,0 41.52,2.74 52.4,8.21 12.44,6.03 18.59,16.48 18.59,31.34 z m 188.37,60.23 c -0.87,-18.4 -1.49,-38.91 -1.92,-61.36 -0.44,-22.44 -0.62,-47.18 -0.62,-74.1 0,-19.58 -1.68,-35.68 -4.92,-48.49 -3.29,-12.75 -8.46,-23.44 -15.42,-32.21 -6.96,-8.76 -15.91,-15.23 -26.85,-19.52 -10.94,-4.22 -24.06,-6.34 -39.35,-6.34 -11.75,0 -22.32,1.25 -31.71,3.79 l 2.73,26.61 c 8.64,-3.98 17.66,-6.02 26.98,-6.02 10.45,0 19.59,1.48 27.42,4.47 7.83,2.98 14.05,7.65 18.78,13.92 4.66,6.34 8.02,14.12 10.01,23.32 1.99,9.26 2.98,21.32 2.98,36.24 0,55.14 -0.93,101.71 -2.74,139.69 z m 212.37,-209.63 -1.12,-27.48 h -146.78 c 1.68,37.62 2.55,79.14 2.55,124.59 0,42.71 -0.87,80.26 -2.55,112.52 h 137.7 l -1.48,-27.1 c -33.39,1.43 -68.77,2.17 -106.19,2.17 0.75,-18.83 1.12,-44.26 1.12,-76.27 32.27,0 61.05,0.68 86.29,2.17 v -27.17 c -26.92,1.12 -55.7,1.68 -86.29,1.68 0,-31.21 0.56,-60.49 1.61,-87.84 40.35,0 78.71,0.93 115.14,2.73 z m 228.72,-27.48 h -39.85 c 0,1.31 -6.96,11.88 -20.76,31.71 -16.04,22.94 -30.65,41.9 -43.9,56.82 -17.96,20.27 -31.26,30.4 -39.91,30.4 h -5.65 c 0,-28.41 0.62,-68.07 1.86,-118.93 h -34.26 c 1.81,37.62 2.74,79.14 2.74,124.59 0,42.71 -0.93,80.26 -2.74,112.52 h 34.26 c -1.24,-32.26 -1.86,-65.02 -1.86,-98.35 h 4.22 c 6.66,0 23.31,15.48 49.99,46.44 26.67,31.03 39.97,48.31 39.97,51.91 h 37.86 c 0,-3.6 -12.93,-18.64 -38.85,-45.07 -25.93,-26.36 -45.2,-44.14 -57.82,-53.28 v -1.8 c 13.93,-5.35 37.17,-29.47 69.75,-72.3 29.97,-39.48 44.95,-60.99 44.95,-64.66 z m 189.99,237.11 -0.87,-25.67 c -24.06,1.24 -48.93,1.86 -74.54,1.86 -0.25,-23.31 -0.38,-52.9 -0.38,-88.71 0,-39.6 0.62,-81.13 1.87,-124.59 h -33.33 c 1.43,41.41 2.18,82.94 2.18,124.59 0,35.31 -0.37,64.9 -1.12,88.71 -17.97,0 -43.2,-0.74 -75.78,-2.17 l 0.93,25.98 z m 211.31,-232.19 c -19.9,-6.53 -40.04,-9.83 -60.31,-9.83 -42.58,0 -74.72,11.38 -96.42,34.13 -21.7,22.76 -32.52,50.92 -32.52,84.43 0,33.88 11.82,63.47 35.32,88.78 23.56,25.36 56.26,37.98 98.04,37.98 15.04,0 29.28,-1.74 42.77,-5.28 l -4.54,-30.22 c -20.02,4.85 -36.18,7.27 -48.43,7.27 -29.4,0 -51.91,-8.88 -67.51,-26.66 -15.61,-17.79 -23.38,-39.86 -23.38,-66.22 0,-26.48 8.95,-49.67 26.86,-69.56 17.9,-19.9 43.21,-29.9 75.85,-29.9 5.96,0 14.85,0.93 26.79,2.73 -2.11,12.62 -3.11,27.36 -3.11,44.08 0,14.11 -0.87,27.91 -2.55,41.34 h 33.14 c -1,-15.98 -1.43,-32.95 -1.43,-50.79 0,-7.65 0.43,-25.06 1.43,-52.28 z m 206.4,22.56 -1.12,-27.48 h -146.78 c 1.68,37.62 2.55,79.14 2.55,124.59 0,42.71 -0.87,80.26 -2.55,112.52 h 137.7 l -1.49,-27.1 c -33.39,1.43 -68.76,2.17 -106.18,2.17 0.74,-18.83 1.11,-44.26 1.11,-76.27 32.27,0 61.05,0.68 86.29,2.17 v -27.17 c -26.92,1.12 -55.7,1.68 -86.29,1.68 0,-31.21 0.56,-60.49 1.62,-87.84 40.35,0 78.71,0.93 115.14,2.73 z m 184.64,33.88 c 0,-44.88 -31.27,-67.39 -93.75,-67.39 -22.88,0 -43.15,2.62 -60.86,7.83 l 6.4,28.61 c 20.39,-7.03 39.72,-10.57 58.06,-10.57 41.28,0 61.93,11.68 61.93,35 0,11.75 -5.35,21.82 -16.04,30.21 -7.16,5.59 -21.21,13.06 -42.22,22.44 -22.13,9.83 -37.61,18.84 -46.44,27.11 -12.31,11.44 -18.4,25.74 -18.4,42.96 0,18.03 6.22,32.64 18.78,43.95 13.92,12.62 33.69,18.9 59.18,18.9 28.91,0 48.68,-1.87 59.37,-5.66 l -4.41,-28.91 c -18.4,5.79 -38.05,8.71 -58.82,8.71 -31.2,0 -46.81,-10.44 -46.81,-31.34 0,-10.07 4.54,-18.52 13.49,-25.3 5.85,-4.23 18.71,-10.69 38.61,-19.27 22.69,-9.89 39.1,-19.21 49.17,-28.1 15.18,-13.37 22.76,-29.72 22.76,-49.18 z m 203.97,175.75 -0.87,-25.67 c -24.06,1.24 -48.93,1.86 -74.54,1.86 -0.25,-23.31 -0.37,-52.9 -0.37,-88.71 0,-39.6 0.62,-81.13 1.86,-124.59 h -33.32 c 1.43,41.41 2.18,82.94 2.18,124.59 0,35.31 -0.37,64.9 -1.12,88.71 -17.97,0 -43.21,-0.74 -75.78,-2.17 l 0.93,25.98 z m 224.43,-237.11 h -38.42 c 0,8.15 -7.65,33.7 -22.94,76.66 H 4090.9 c -15.04,-42.34 -22.56,-67.89 -22.56,-76.66 h -36.81 c 0,4.48 15.67,43.34 47,116.51 31.33,73.11 47,113.33 47,120.6 h 42.27 c 0,-7.14 14.93,-46.75 44.77,-118.92 29.9,-72.12 44.82,-111.53 44.82,-118.19 z m -69.75,100.53 c -28.54,71.31 -42.78,109.17 -42.78,113.65 h -2.05 c 0,-3.73 -14.73,-41.66 -44.26,-113.65 z m 250.41,-73.73 -1.12,-26.8 h -143.3 c 1.43,29.97 2.18,71.5 2.18,124.59 0,45.63 -0.75,83.18 -2.18,112.52 h 33.89 c -1.5,-24.49 -2.18,-62.04 -2.18,-112.52 0,-41.53 -0.68,-74.79 -2.05,-99.84 36.43,0 74.73,0.68 114.76,2.05 z m 177.18,210.31 -0.87,-25.67 c -24.06,1.24 -48.93,1.86 -74.54,1.86 -0.25,-23.31 -0.37,-52.9 -0.37,-88.71 0,-39.6 0.62,-81.13 1.86,-124.59 h -33.32 c 1.43,41.41 2.17,82.94 2.17,124.59 0,35.31 -0.37,64.9 -1.11,88.71 -17.97,0 -43.21,-0.74 -75.78,-2.17 l 0.93,25.98 z m 228.41,0 c -0.44,-22.93 -0.81,-44.32 -1.06,-64.28 -0.25,-19.89 -0.37,-38.48 -0.37,-55.7 0,-81.38 -32.14,-122.04 -96.36,-122.04 -16.73,0 -31.09,2.37 -43.09,7.21 -11.94,4.79 -21.76,12.13 -29.46,22.01 -7.71,9.89 -13.37,22.38 -16.98,37.43 -3.54,15.04 -5.34,32.82 -5.34,53.4 0,17.97 -0.13,37.05 -0.37,57.26 -0.25,20.2 -0.63,41.78 -1.13,64.71 h 34.63 c -1.43,-46.25 -2.17,-82.49 -2.17,-108.73 0,-21.08 0.99,-38.29 3.11,-51.6 2.04,-13.3 5.71,-24.37 11,-33.26 5.28,-8.82 11.93,-15.11 19.95,-18.84 8.02,-3.73 18.22,-5.53 30.59,-5.53 13,0 23.56,1.8 31.71,5.53 8.08,3.73 14.73,9.83 19.83,18.41 5.1,8.57 8.76,19.52 10.94,32.95 2.18,13.43 3.23,31.02 3.23,52.71 0,12.87 -0.18,28.29 -0.62,46.2 -0.43,17.9 -1.06,38.66 -1.93,62.16 z M 5091,1010.91 h -25.48 c 0,2.05 -19.9,31.15 -59.75,87.23 -41.65,58.93 -65.4,96.05 -71.18,111.47 h -1.87 c 2.18,-29.22 3.3,-54.34 3.3,-75.23 0,-40.78 0.93,-81.94 2.73,-123.47 h -30.58 c 2.05,39.48 3.11,81.01 3.11,124.59 0,42.83 -1.06,80.38 -3.11,112.52 h 34.94 c 0,-3.35 18.34,-31.08 55.01,-82.99 38.36,-54.65 60.25,-90.27 65.59,-106.74 h 1.81 c -2.06,29.59 -3.11,54.77 -3.11,75.41 0,44.88 -0.81,83.05 -2.55,114.32 H 5091 c -2.05,-32.14 -3.1,-69.69 -3.1,-112.52 0,-43.58 1.05,-85.11 3.1,-124.59 z m 241.53,4.92 c -19.89,-6.53 -40.04,-9.83 -60.3,-9.83 -42.59,0 -74.73,11.38 -96.43,34.13 -21.69,22.76 -32.51,50.92 -32.51,84.43 0,33.88 11.81,63.47 35.31,88.78 23.56,25.36 56.26,37.98 98.04,37.98 15.04,0 29.28,-1.74 42.77,-5.28 l -4.53,-30.22 c -20.02,4.85 -36.19,7.27 -48.43,7.27 -29.41,0 -51.91,-8.88 -67.52,-26.66 -15.61,-17.79 -23.38,-39.86 -23.38,-66.22 0,-26.48 8.96,-49.67 26.86,-69.56 17.91,-19.9 43.21,-29.9 75.85,-29.9 5.96,0 14.85,0.93 26.79,2.73 -2.11,12.62 -3.1,27.36 -3.1,44.08 0,14.11 -0.88,27.91 -2.56,41.34 h 33.14 c -0.99,-15.98 -1.43,-32.95 -1.43,-50.79 0,-7.65 0.44,-25.06 1.43,-52.28" /><path
         id="path16"
         style="fill:#30ac8d;fill-opacity:1;fill-rule:nonzero;stroke:none"
         d="m 1381.68,286.438 c 0,-24.887 1.19,-42.067 3.56,-51.844 2.22,-9.625 6.67,-17.032 13.18,-22.067 6.52,-5.039 17.19,-9.48 31.99,-13.183 v -21.328 h -172.4 v 21.328 c 14.51,3.703 24.58,7.554 30.21,11.699 5.63,4 9.63,8.887 12.15,14.519 2.52,5.629 4.15,13.329 5.18,22.958 1.04,9.777 1.63,22.363 1.63,37.918 V 649.77 c 0,27.695 -0.29,47.097 -0.74,58.062 -0.44,10.957 -1.63,20.289 -3.4,27.992 -1.93,7.699 -4.6,13.625 -7.85,18.071 -3.41,4.293 -7.85,7.699 -13.48,10.367 -5.63,2.664 -15.85,5.183 -30.51,7.851 v 22.512 l 104.57,4.297 h 25.91 z m 249.58,476.488 v -84.129 h -79.83 v 84.129 z M 1507.14,199.344 c 11.26,3.406 19.4,6.515 24.15,9.035 4.73,2.664 8.73,6.219 12.14,10.812 3.26,4.739 5.93,11.704 7.85,21.329 1.78,9.48 2.81,24.441 2.81,44.734 v 189.144 c 0,18.512 -0.29,33.473 -0.89,44.731 -0.59,11.254 -2.66,20.293 -6.07,27.105 -3.55,6.813 -8.74,11.848 -15.84,15.106 -7.11,3.41 -17.19,6.222 -30.22,8.594 v 22.957 l 101.16,3.851 h 26.52 V 286.438 c 0,-24.887 1.03,-42.067 3.4,-51.844 2.37,-9.625 6.67,-17.032 13.18,-22.067 6.52,-5.039 17.19,-9.48 32,-13.183 v -21.328 h -170.19 z m 372.37,393.547 v -21.329 c -13.33,-3.113 -22.66,-6.222 -28.14,-9.035 -5.63,-2.961 -9.63,-6.664 -12.44,-11.257 -2.82,-4.739 -4.16,-10.961 -4.16,-18.665 0,-7.847 1.04,-15.996 2.82,-24.585 1.93,-8.59 4.89,-18.368 8.89,-29.774 l 75.54,-219.504 88.57,210.473 c 5.78,13.922 9.78,25.324 12.15,34.211 2.22,9.039 3.4,17.332 3.4,25.179 0,12.149 -3.25,21.481 -9.77,27.848 -6.52,6.371 -18.37,11.406 -35.7,15.109 v 21.329 h 162.19 v -21.329 c -11.26,-2.222 -19.85,-5.777 -25.92,-10.664 -6.07,-4.742 -12.3,-12.296 -18.37,-22.515 -6.07,-10.219 -13.18,-24.586 -21.62,-43.102 L 1930.76,173.723 h -51.25 L 1761.9,497.801 c -8.15,22.363 -14.51,37.621 -19.25,45.769 -4.89,8.293 -10.08,14.364 -15.7,18.512 -5.63,4 -13.78,7.258 -24.44,9.48 v 21.329 z m 633.94,-341.114 c -18.52,-19.402 -35.55,-34.511 -50.95,-45.621 -15.56,-10.961 -32.45,-19.551 -50.96,-25.769 -18.51,-6.223 -38.95,-9.332 -61.32,-9.332 -59.54,0 -104.57,17.922 -134.93,53.617 -30.36,35.695 -45.47,88.426 -45.47,158.187 0,43.102 7.7,81.168 23.1,114.051 15.56,33.031 37.62,58.508 66.21,76.43 28.73,17.922 61.62,26.957 98.94,26.957 29.18,0 54.07,-4.742 74.65,-13.922 20.59,-9.332 37.03,-21.922 49.33,-38.066 12.29,-15.997 21.77,-36.289 28.58,-60.731 6.82,-24.437 10.67,-56.285 11.55,-95.683 h -273.42 v -7.7 c 0,-34.215 3.85,-62.949 11.56,-86.207 7.55,-23.25 20.14,-41.468 37.62,-54.652 17.62,-13.184 40.29,-19.699 68.43,-19.699 23.7,0 45.02,4.293 63.99,13.179 18.95,8.887 37.76,23.258 56.57,43.106 z m -72.88,176.258 c -1.77,31.106 -5.62,56.731 -11.7,76.578 -6.07,19.699 -15.25,34.957 -27.4,45.473 -12.15,10.516 -27.99,15.848 -47.69,15.848 -29.77,0 -53.62,-11.848 -71.39,-35.844 -17.78,-23.848 -28.29,-57.914 -31.41,-102.055 z m 276.84,92.723 6.07,-1.184 c 16,19.403 30.66,34.66 44.29,45.766 13.62,11.109 28.28,19.699 43.98,25.773 15.86,6.075 33.63,9.184 53.63,9.184 16.88,0 31.99,-0.887 45.61,-2.664 v -99.832 h -49.02 c -6.96,15.699 -14.37,26.957 -22.22,34.066 -7.7,7.11 -18.52,10.664 -31.99,10.664 -10.52,0 -20.88,-3.109 -31.11,-9.183 -10.22,-6.075 -20.14,-14.813 -29.77,-26.368 -9.48,-11.55 -16,-22.511 -19.7,-32.582 -3.56,-10.074 -5.33,-22.07 -5.33,-35.992 V 286.438 c 0,-26.219 1.48,-44.438 4.74,-54.36 3.11,-10.07 8.44,-17.328 15.85,-21.922 7.26,-4.59 18.36,-8.293 33.17,-10.812 v -21.328 h -174.92 v 21.328 c 10.96,3.406 18.96,6.515 23.7,9.035 4.74,2.664 8.88,6.219 12.29,10.812 3.56,4.739 6.07,11.704 7.85,21.329 1.78,9.48 2.67,24.441 2.67,44.734 v 189.144 c 0,18.512 -0.3,33.473 -0.89,44.731 -0.6,11.254 -2.67,20.293 -6.07,27.105 -3.56,6.813 -8.74,11.848 -15.85,15.106 -7.11,3.41 -17.18,6.222 -30.22,8.594 v 22.511 l 101.61,4.297 h 26.36 z m 580.91,-313.27 c 0,-38.953 -4.44,-70.648 -13.63,-94.941 -9.03,-24.2892 -24.44,-44.879 -46.06,-61.6173 -21.48,-16.8828 -51.7,-31.1016 -90.35,-42.95314 L 3133.91,46.043 c 25.48,9.9258 43.55,19.8476 54.21,29.7734 10.67,9.9219 18.22,22.5117 22.36,37.4726 4.15,15.106 6.38,35.399 6.38,60.875 v 487.75 c 0,25.18 -1.34,42.363 -3.71,51.543 -2.52,9.332 -6.52,16.441 -12.14,21.332 -5.63,4.887 -17.33,9.625 -34.96,14.219 v 21.328 h 183.07 v -21.328 c -12.74,-3.113 -21.92,-6.223 -27.55,-9.481 -5.62,-3.113 -10.07,-7.113 -13.48,-12 -3.25,-4.738 -5.77,-11.847 -7.4,-21.472 -1.48,-9.485 -2.37,-24.293 -2.37,-44.141 z m 388.51,32.59 -6.52,1.777 c -25.18,-25.773 -48.88,-43.992 -70.95,-54.656 -22.22,-10.812 -45.77,-16.144 -70.5,-16.144 -22.07,0 -41.47,4.293 -58.21,12.886 -16.74,8.442 -29.63,20.438 -38.66,35.989 -8.88,15.406 -13.48,33.328 -13.48,53.621 0,42.215 20.89,74.797 62.8,97.758 41.77,22.957 104.43,36.433 188.11,40.14 v 28.289 c 0,30.067 -2.96,53.766 -8.74,71.098 -5.77,17.328 -14.81,30.066 -27.25,38.211 -12.44,8.148 -29.18,12.148 -49.91,12.148 -22.66,0 -40.74,-5.925 -54.51,-17.773 -13.78,-11.852 -24.15,-29.625 -30.96,-53.473 h -56.87 v 56.434 c 27.69,14.515 50.8,25.179 69.31,31.992 18.52,6.816 37.03,12.148 55.55,15.996 18.51,3.852 37.32,5.926 56.43,5.926 28.73,0 51.69,-4.59 69.02,-13.774 17.33,-9.035 30.37,-22.961 39.1,-41.769 8.59,-18.813 13.04,-47.25 13.04,-85.168 v -150.93 c 0,-21.48 0.15,-36.586 0.44,-45.328 0.3,-8.887 1.04,-17.031 2.52,-24.586 1.48,-7.551 3.7,-13.48 6.52,-17.922 2.96,-4.59 7.25,-8.441 12.89,-11.554 5.62,-3.254 14.8,-6.516 27.54,-9.922 v -21.328 h -118.93 z m -7.41,135.82 c -58.8,-0.589 -102.79,-8.441 -131.97,-23.402 -29.18,-15.105 -43.84,-37.769 -43.84,-68.133 0,-16.59 3.41,-29.476 10.07,-39.101 6.66,-9.481 14.96,-16.145 25.18,-19.7 10.07,-3.703 22.07,-5.48 35.99,-5.48 19.7,0 37.47,4.738 53.62,14.367 16,9.477 28.44,21.625 37.48,36.434 8.88,14.812 13.47,29.328 13.47,43.844 z m 306.75,148.86 1.78,-0.446 c 22.51,22.813 40.44,38.809 53.62,47.993 13.18,9.031 26.22,15.996 39.1,20.586 12.74,4.593 26.66,6.961 41.33,6.961 15.99,0 30.06,-1.926 42.5,-5.629 12.45,-3.852 23.41,-9.477 32.89,-17.18 9.32,-7.703 17.03,-17.035 22.95,-28.289 5.93,-11.109 10.37,-24.442 13.19,-39.844 2.96,-15.555 4.44,-35.105 4.44,-58.801 V 286.438 c 0,-25.032 1.03,-42.215 3.26,-51.399 2.07,-9.031 6.07,-16.141 11.7,-21.18 5.63,-5.035 16.89,-9.925 34.07,-14.515 v -21.328 h -171.08 v 21.328 c 11.26,3.406 19.4,6.515 24.29,9.035 5.04,2.664 9.04,6.219 12.44,10.812 3.26,4.739 5.93,11.848 7.85,21.477 1.78,9.777 2.82,24.437 2.82,44.141 V 398.41 c 0,38.512 -2.07,67.988 -5.93,88.281 -3.85,20.442 -11.55,35.696 -22.95,45.914 -11.41,10.075 -27.4,15.11 -47.99,15.11 -11.56,0 -21.93,-2.074 -31.26,-6.074 -9.18,-3.996 -19.99,-11.258 -32.14,-21.621 -12.14,-10.52 -21.33,-21.184 -27.55,-32.145 -6.22,-10.961 -9.33,-22.809 -9.33,-35.102 V 286.438 c 0,-19.555 0.6,-33.626 1.63,-42.067 0.89,-8.293 2.97,-15.402 5.78,-21.031 2.96,-5.629 7.26,-10.219 13.33,-13.926 5.92,-3.555 15.11,-6.957 27.55,-10.07 v -21.328 h -171.97 v 21.328 c 12.74,3.406 21.92,6.668 27.41,9.922 5.48,3.113 9.77,7.261 12.73,12.148 3.12,4.887 5.34,11.996 6.82,21.328 1.48,9.184 2.07,23.848 2.07,43.696 V 649.77 c 0,27.695 -0.15,47.097 -0.59,58.062 -0.45,10.957 -1.63,20.289 -3.41,27.992 -1.93,7.699 -4.59,13.625 -7.85,18.071 -3.4,4.293 -7.85,7.699 -13.48,10.367 -5.62,2.664 -15.85,5.183 -30.51,7.851 v 22.512 l 104.57,4.297 h 25.92 z m 796.87,-346.742 h -171.08 v 21.328 c 11.41,3.406 19.41,6.515 24.29,9.035 5.04,2.664 9.04,6.219 12.45,10.812 3.26,4.739 5.92,11.848 7.85,21.477 1.77,9.777 2.81,24.437 2.81,44.141 V 398.41 c 0,20.297 -0.59,38.66 -1.78,55.102 -1.18,16.59 -3.11,30.07 -5.92,40.582 -2.67,10.668 -6.07,18.816 -9.93,24.738 -3.84,5.926 -8.59,10.961 -13.92,15.258 -5.33,4.148 -11.4,7.551 -18.36,9.922 -6.97,2.519 -16.15,3.703 -27.41,3.703 -11.25,0 -21.92,-2.223 -32.14,-6.668 -10.07,-4.586 -21.18,-12.289 -33.32,-23.25 -12.15,-10.961 -21.04,-21.922 -26.51,-32.59 -5.49,-10.66 -8.15,-22.957 -8.15,-36.875 V 286.438 c 0,-24.887 1.04,-42.067 3.4,-51.844 2.38,-9.625 6.67,-17.032 13.19,-22.067 6.51,-5.039 17.18,-9.48 31.99,-13.183 v -21.328 h -170.19 v 21.328 c 11.26,3.406 19.41,6.515 24.15,9.035 4.74,2.664 8.74,6.219 12.14,10.812 3.26,4.739 5.93,11.704 7.85,21.329 1.78,9.48 2.82,24.441 2.82,44.734 v 189.144 c 0,18.512 -0.3,33.473 -0.89,44.731 -0.59,11.254 -2.67,20.293 -6.08,27.105 -3.55,6.813 -8.73,11.848 -15.84,15.106 -7.11,3.41 -17.18,6.222 -30.22,8.594 v 22.957 l 101.61,3.851 h 26.36 l -4.74,-70.652 6.08,-1.778 c 21.47,21.626 38.65,37.176 51.84,46.36 13.18,9.332 26.51,16.441 39.99,21.48 13.48,5.18 27.69,7.7 42.66,7.7 15.69,0 29.62,-1.926 41.91,-5.481 12.3,-3.555 23.11,-9.18 32.59,-16.734 9.33,-7.555 17.18,-16.887 23.25,-27.996 6.08,-11.11 10.52,-24.442 13.63,-40.141 2.96,-15.551 4.59,-35.398 4.59,-59.391 V 286.438 c 0,-19.848 0.6,-34.364 1.63,-43.399 1.18,-8.887 3.26,-15.848 6.07,-20.738 2.97,-4.887 7.11,-9.035 12.59,-12.442 5.49,-3.257 15.11,-6.812 28.74,-10.515 v -21.328" /><path
         id="path18"
         style="fill:#30ac8d;fill-opacity:1;fill-rule:nonzero;stroke:none"
         d="m 926.805,176.348 c -35.485,0 -67.934,5.91 -97.047,17.586 -29.117,11.675 -54.285,29.871 -75.059,54.589 -20.926,24.715 -37,56.407 -48.523,94.922 -11.375,38.516 -16.985,84.461 -16.985,138.137 0,65.965 10.012,122.672 30.176,170.133 20.168,47.312 48.977,83.402 86.43,108.117 37.457,24.715 80.824,37.152 130.406,37.152 52.617,0 97.047,-11.675 132.987,-34.879 35.93,-23.199 63.08,-57.468 81.27,-102.652 18.2,-45.187 27.3,-100.082 27.3,-164.98 0,-69.297 -10.31,-127.825 -31.09,-175.438 -20.62,-47.769 -49.88,-83.398 -87.64,-107.055 -37.76,-23.808 -81.885,-35.632 -132.225,-35.632 z M 780.629,494.02 c 0,-90.981 13.344,-160.125 39.73,-207.438 26.536,-47.461 65.352,-71.113 116.149,-71.113 32.297,0 59.742,10.308 82.182,30.933 22.6,20.469 39.43,50.645 50.65,90.371 11.37,39.579 16.98,85.977 16.98,139.051 0,64.594 -6.67,118.121 -19.86,160.578 -13.19,42.457 -31.08,73.391 -53.98,92.649 -22.75,19.254 -49.285,28.808 -79.46,28.808 -26.688,0 -49.582,-6.214 -68.692,-18.648 -19.105,-12.438 -34.875,-30.176 -47.461,-53.074 -12.586,-22.895 -21.836,-50.797 -27.597,-83.246 -5.758,-32.602 -8.641,-68.84 -8.641,-108.871" /><path
         id="path20"
         style="fill:#30ac8d;fill-opacity:1;fill-rule:evenodd;stroke:none"
         d="m 665.707,177.883 c -7.531,2.492 -15.391,5.058 -23.605,8.828 -182.407,83.746 -181.489,487.75 -14.684,596.199 7.914,5.145 16.223,10.324 25.242,15.07 H 115.508 V 177.883 h 550.199" /><path
         id="path22"
         style="fill:#30ac8d;fill-opacity:1;fill-rule:evenodd;stroke:none"
         d="m 550.422,177.883 c -7.531,2.492 -15.391,5.058 -23.602,8.828 -182.41,83.746 -181.488,487.75 -14.683,596.199 7.91,5.145 16.222,10.324 25.238,15.07 H 0.226562 V 177.883 H 550.422" /></g></g></svg>